<?xml version="1.0" standalone="no"?>
<!DOCTYPE svg PUBLIC "-//W3C//DTD SVG 20010904//EN"
 "http://www.w3.org/TR/2001/REC-SVG-20010904/DTD/svg10.dtd">
<svg version="1.0" xmlns="http://www.w3.org/2000/svg"
 width="1250.000000pt" height="1250.000000pt" viewBox="0 0 1250.000000 1250.000000"
 preserveAspectRatio="xMidYMid meet">
<metadata>
Created by potrace 1.14, written by Peter Selinger 2001-2017
</metadata>
<g transform="translate(0.000000,1250.000000) scale(0.100000,-0.100000)"
fill="#000000" stroke="none">
<path d="M675 12485 c-329 -61 -601 -334 -661 -665 -20 -112 -20 -11028 0
-11140 61 -333 333 -605 666 -666 112 -20 11028 -20 11140 0 333 61 605 333
666 666 20 112 20 11028 0 11140 -61 333 -333 605 -666 666 -109 19 -11039 19
-11145 -1z m1340 -1291 c537 -97 1223 -259 1695 -399 1507 -447 2544 -1015
3091 -1695 254 -316 424 -727 468 -1132 14 -121 14 -392 1 -518 -62 -598 -323
-1260 -748 -1897 -52 -79 -98 -143 -101 -142 -3 0 -54 98 -113 217 -196 398
-428 723 -738 1032 -286 286 -578 502 -1260 935 -672 426 -974 655 -1275 966
-143 148 -230 254 -334 409 -77 115 -172 292 -206 383 -10 26 -20 46 -22 43
-9 -9 85 -244 157 -391 118 -241 253 -438 453 -663 214 -240 521 -495 1107
-917 600 -433 589 -424 965 -799 189 -188 399 -405 469 -484 403 -459 696
-884 819 -1192 20 -51 206 -755 468 -1772 238 -928 435 -1686 436 -1684 2 1
214 745 472 1652 l468 1649 292 3 c160 1 291 0 291 -4 0 -7 891 -3288 894
-3291 1 -2 195 739 430 1645 235 906 429 1648 430 1650 2 1 127 1 278 0 l274
-3 -566 -1955 -567 -1955 -289 -3 -289 -2 -449 1557 c-247 857 -453 1565 -457
1573 -6 11 -9 9 -14 -10 -3 -14 -214 -720 -469 -1570 l-463 -1545 -282 -8
c-156 -5 -285 -7 -287 -4 -7 7 -1084 3869 -1118 4010 -19 76 -36 140 -39 143
-3 3 -18 -1 -34 -10 -133 -68 -518 -200 -768 -261 -912 -226 -1694 -111 -2302
337 -458 337 -786 835 -1029 1563 -362 1086 -507 2675 -399 4380 9 132 17 245
20 251 4 14 271 -25 640 -92z"/>
</g>
</svg>
